<svg id="Layer_1" data-name="Layer 1" xmlns="http://www.w3.org/2000/svg" viewBox="0 0 110.16 115.88"><defs><style>.cls-1{fill:#40ba37;}</style></defs><title>web-icon</title><path class="cls-1" d="M116.81,47.51A27,27,0,0,0,112.42,36a21.66,21.66,0,0,0-4.27-4.54,17.89,17.89,0,0,0-5.47-2.9,15,15,0,0,0-10.07.24,35.43,35.43,0,0,0-2.75-5.73,34.25,34.25,0,0,0-3.46-4.79,33.19,33.19,0,0,0-4.33-4.13A35.92,35.92,0,0,0,77,10.92a35.26,35.26,0,0,0-5.62-2.21,32.36,32.36,0,0,0-6-1.06,28.87,28.87,0,0,0-6.09.23,26.58,26.58,0,0,0-5.9,1.66,25.39,25.39,0,0,0-5.24,3.08,26.11,26.11,0,0,0-4.26,4.21,25.2,25.2,0,0,0-3,5.07,21.84,21.84,0,0,0-1.58,5.61c-.07.67-.1,1.33-.11,2a23.57,23.57,0,0,0-4.34-1.09,22.22,22.22,0,0,0-7.23.1,23.39,23.39,0,0,0-6.86,2.38,26.24,26.24,0,0,0-10.31,9.9,25.28,25.28,0,0,0-2.74,6.7A25.74,25.74,0,0,0,7,54.69,23.75,23.75,0,0,0,12,68a23,23,0,0,0,5.11,4.84,19.49,19.49,0,0,0,6.32,3,14.53,14.53,0,0,0,6.9.21,11.1,11.1,0,0,0,5.54-3c.2,1.56.37,3.12.5,4.69.4,4.14.65,8.3.65,12.45a113.52,113.52,0,0,1-.58,12.38c-.21,2.05-.51,4.08-.86,6.09-.19,1-.39,2-.62,3-.11.49-.24,1-.37,1.46s-.28,1-.41,1.36L33.56,116l1.49.77c1.22.63,2.33,1.12,3.51,1.61s2.34.93,3.53,1.33a72.4,72.4,0,0,0,7.23,2A68.55,68.55,0,0,0,56.7,123c2.49.27,5,.41,7.47.44A63.24,63.24,0,0,0,79,121.8a59.08,59.08,0,0,0,13.79-5.2A76.12,76.12,0,0,1,78.63,120c-2.39.3-4.78.53-7.18.62s-4.79,0-7.18-.13a77.14,77.14,0,0,1-14.09-2.31c-2.3-.61-4.58-1.32-6.8-2.15-1.11-.4-2.21-.84-3.3-1.3-.55-.23-1.12-.49-1.67-.74.15-.52.28-1,.41-1.54.26-1.07.49-2.13.7-3.2s.36-2.06.51-3.1l1,.33c1.21.4,2.44.75,3.66,1.08a68.43,68.43,0,0,0,7.45,1.55,57.6,57.6,0,0,0,7.52.7,51.91,51.91,0,0,0,7.49-.3,51.94,51.94,0,0,1-7.39-.71,56.69,56.69,0,0,1-7.18-1.68,65.71,65.71,0,0,1-6.9-2.46q-1.7-.7-3.33-1.5c-.62-.3-1.25-.62-1.87-.94A94.79,94.79,0,0,0,40.81,90a123.82,123.82,0,0,0-1.12-12.77c-.59-4-1.31-7.88-2.23-11.75.17-.13.35-.25.52-.36.43-.27.87-.53,1.32-.77a20.21,20.21,0,0,1,2.82-1.23A20.53,20.53,0,0,1,48.21,62a22.06,22.06,0,0,1,3.14.13,22.32,22.32,0,0,1,3.13.56,30.64,30.64,0,0,1,6,2.29,26.12,26.12,0,0,0-5.78-3.1,21.66,21.66,0,0,0-6.5-1.42,21,21,0,0,0-6.73.66,22,22,0,0,0-3.23,1.12c-.53.24-1,.49-1.55.77a14,14,0,0,0-1.54,1l-.6.43.14.85c.41,2.54.78,5.09,1.09,7.64a11.69,11.69,0,0,1-5.71,1.8,14.06,14.06,0,0,1-6-1.16,19.41,19.41,0,0,1-5.07-3.25,22.4,22.4,0,0,1-3.86-4.57A20.68,20.68,0,0,1,12,54.55a21,21,0,0,1,3.12-11A23.89,23.89,0,0,1,18.69,39a22.92,22.92,0,0,1,4.6-3.5,19.74,19.74,0,0,1,11.08-2.67,24.46,24.46,0,0,1,19.83,13,19.67,19.67,0,0,0-2.44-6.21,23.53,23.53,0,0,0-4.36-5.26,25.16,25.16,0,0,0-7.25-4.5c.18-.68.38-1.35.61-2a25.53,25.53,0,0,1,2.45-4.7,27.17,27.17,0,0,1,3.36-4,26.68,26.68,0,0,1,4-3.1c5.74-3.59,12.82-4,19.27-2.18A30.76,30.76,0,0,1,79,18.29a35.37,35.37,0,0,1,3.91,3.26,41,41,0,0,1,3.41,3.9,49.56,49.56,0,0,1,8.51,19.68,36.79,36.79,0,0,0-2-15.87,15.52,15.52,0,0,1,8.93,1.67,17,17,0,0,1,4.15,3.12,19.27,19.27,0,0,1,3,4.16,25.2,25.2,0,0,1,2.89,9.91,36.77,36.77,0,0,1,.06,5.25,46.15,46.15,0,0,1-.7,5.26,20.34,20.34,0,0,1-4.43,8.83A21.48,21.48,0,0,1,105,69.28a18.08,18.08,0,0,1-6.43,3.8,21.52,21.52,0,0,1-10.34.9,22.39,22.39,0,0,1-2.66-.54,25.07,25.07,0,0,1-2.64-.81,33.07,33.07,0,0,1-5.14-2.38,22.18,22.18,0,0,0,2.08,2A25.58,25.58,0,0,0,82.21,74a23.58,23.58,0,0,0,5.35,2.64l.29.09a36.35,36.35,0,0,0-2,9,51.71,51.71,0,0,0,.08,10.7A53.41,53.41,0,0,0,88.13,107a35.58,35.58,0,0,0,4.62,9.62c-.78-3.48-1.46-6.85-2-10.26s-1-6.79-1.4-10.19-.64-6.82-.79-10.26c-.14-3-.17-5.93-.16-9a22.07,22.07,0,0,0,11.39.37,20.65,20.65,0,0,0,8.55-4.16,24.41,24.41,0,0,0,2.32-2.21,23.46,23.46,0,0,0,5.82-11.24A36.8,36.8,0,0,0,116.81,47.51Z" transform="translate(-7 -7.59)"/></svg>