<svg id="Layer_1" xmlns="http://www.w3.org/2000/svg" viewBox="0 0 242.14 86.38"><defs><style>.cls-1,.cls-2{isolation:isolate;font-family:CherrySwash-Regular, Cherry Swash;}.cls-1{font-size:45.41px;}.cls-1,.cls-3{fill:#40ba37;}.cls-2{font-size:36.33px;fill:#7fcc2a;}</style></defs><title>site-logo</title><text class="cls-1" transform="translate(74.17 42.15)">Cooking</text><text class="cls-2" transform="translate(74.53 75.44)">Notes</text><path class="cls-3" d="M89.69,37.22a17.33,17.33,0,0,0-2.85-7.45,13.61,13.61,0,0,0-2.76-2.91A11.6,11.6,0,0,0,80.54,25a9.73,9.73,0,0,0-6.52.16,22,22,0,0,0-4-6.81,21.49,21.49,0,0,0-2.8-2.68,20.15,20.15,0,0,0-6.9-3.52,20.89,20.89,0,0,0-3.92-.68,19.2,19.2,0,0,0-3.94.15,17,17,0,0,0-3.82,1.08,16.23,16.23,0,0,0-3.4,2,16.91,16.91,0,0,0-2.75,2.73,15.94,15.94,0,0,0-2,3.26,14.32,14.32,0,0,0-1,3.63c0,.43-.07.86-.07,1.28a16.15,16.15,0,0,0-2.82-.7,14.45,14.45,0,0,0-4.64.06,15.81,15.81,0,0,0-4.44,1.54,17,17,0,0,0-6.71,6.44,16,16,0,0,0-2.21,9,15.44,15.44,0,0,0,.94,4.56,14.79,14.79,0,0,0,2.25,4.08,14.43,14.43,0,0,0,3.3,3.13,12.53,12.53,0,0,0,4.08,1.92,9.27,9.27,0,0,0,4.47.14,7.14,7.14,0,0,0,3.59-2c.12,1,.24,2,.33,3,.25,2.69.41,5.38.41,8.06a73.92,73.92,0,0,1-.37,8c-.14,1.33-.34,2.65-.58,4-.12.65-.25,1.29-.41,1.93-.07.32-.15.63-.24.94s-.17.64-.26.88l-.38,1,1,.5c.82.41,1.52.72,2.28,1s1.51.59,2.29.86a46.27,46.27,0,0,0,4.64,1.31,43.37,43.37,0,0,0,4.78.81c1.63.18,3.25.27,4.84.29a40.58,40.58,0,0,0,9.57-1.06,37.94,37.94,0,0,0,9-3.37,48.77,48.77,0,0,1-9.14,2.23c-1.56.2-3.1.35-4.66.41s-3.1,0-4.65-.09A49.21,49.21,0,0,1,46.48,83a44.74,44.74,0,0,1-4.39-1.39c-.73-.26-1.44-.54-2.14-.82a10.43,10.43,0,0,1-1.08-.48c.09-.32.17-.66.26-1,.17-.69.31-1.38.45-2.07s.24-1.34.33-2l.64.22c.82.26,1.58.48,2.38.7a46,46,0,0,0,4.81,1,40.19,40.19,0,0,0,4.9.45,34.78,34.78,0,0,0,4.89-.19,36.46,36.46,0,0,1-4.79-.46,37.91,37.91,0,0,1-4.69-1.08,41.73,41.73,0,0,1-4.46-1.63c-.73-.31-1.46-.63-2.16-1l-1.21-.61a61.89,61.89,0,0,0,.22-7.94,78.92,78.92,0,0,0-.73-8.26c-.38-2.56-.81-5.1-1.44-7.61a3.39,3.39,0,0,1,.34-.23c.28-.18.58-.34.82-.51a13.65,13.65,0,0,1,5.77-1.53,12.49,12.49,0,0,1,2,.08,15.73,15.73,0,0,1,2,.37,20.16,20.16,0,0,1,3.9,1.47,17.79,17.79,0,0,0-3.7-2,14.24,14.24,0,0,0-4.22-.92,13.59,13.59,0,0,0-4.35.43,15.2,15.2,0,0,0-2.09.73c-.35.15-.68.32-1,.49a10.47,10.47,0,0,0-1,.63l-.38.27.09.55c.26,1.63.51,3.26.71,4.94a7.62,7.62,0,0,1-3.71,1.17A9.13,9.13,0,0,1,29.65,54,13,13,0,0,1,26.39,52a14.82,14.82,0,0,1-2.52-3,13.35,13.35,0,0,1-2.08-7.19,13.52,13.52,0,0,1,2-7.14,14.86,14.86,0,0,1,5.3-5.21,12.73,12.73,0,0,1,7.16-1.66,15.87,15.87,0,0,1,12.85,8.38,12.66,12.66,0,0,0-1.57-4,15.66,15.66,0,0,0-2.83-3.4A16.43,16.43,0,0,0,40,25.8c.13-.44.25-.87.4-1.28a17.07,17.07,0,0,1,1.63-3,16.67,16.67,0,0,1,2.18-2.56,18.21,18.21,0,0,1,2.62-2,15.39,15.39,0,0,1,12.43-1.39,20,20,0,0,1,5.89,2.82,21.74,21.74,0,0,1,2.52,2.08,29.51,29.51,0,0,1,2.21,2.52,32,32,0,0,1,5.5,12.74A23.66,23.66,0,0,0,74.08,25.4a10.09,10.09,0,0,1,5.83,1.1,11,11,0,0,1,2.69,2,12.31,12.31,0,0,1,2,2.68,16.5,16.5,0,0,1,1.88,6.4,27.71,27.71,0,0,1,0,3.41A29.69,29.69,0,0,1,86,44.4a13.13,13.13,0,0,1-2.86,5.71A15.33,15.33,0,0,1,82,51.27a11.21,11.21,0,0,1-4.16,2.46,13.83,13.83,0,0,1-6.69.58A13.22,13.22,0,0,1,69.4,54a12.94,12.94,0,0,1-1.71-.52,22.6,22.6,0,0,1-3.27-1.52,16.69,16.69,0,0,0,1.33,1.33,17.2,17.2,0,0,0,1.53,1.17,14.47,14.47,0,0,0,3.49,1.7l.18.06A24,24,0,0,0,69.67,62a33.34,33.34,0,0,0,0,6.92,34.92,34.92,0,0,0,1.41,6.78,23.21,23.21,0,0,0,3,6.22c-.51-2.25-.94-4.43-1.32-6.64s-.66-4.39-.9-6.6-.41-4.41-.51-6.64c-.09-1.91-.11-3.84-.1-5.81a14.24,14.24,0,0,0,7.33.24,15.31,15.31,0,0,0,5.59-2.67,15.49,15.49,0,0,0,5.27-8.73A24,24,0,0,0,89.69,37.22Z" transform="translate(-18.56 -11.41)"/></svg>
